<?xml version="1.0" encoding="UTF-8" standalone="no"?>
<!-- Created with Inkscape (http://www.inkscape.org/) -->

<svg
   width="48"
   height="48"
   viewBox="0 0 48 48"
   version="1.1"
   id="svg1"
   xmlns="http://www.w3.org/2000/svg"
   xmlns:svg="http://www.w3.org/2000/svg"
   xmlns:sketch="http://www.bohemiancoding.com/sketch/ns">
  <defs
     id="defs1" />
  <path
     fill-rule="evenodd"
     clip-rule="evenodd"
     d="m 21.331817,45.231729 a 6.0353301,6.03533 0 0 0 8.536373,0 L 45.231729,29.86819 a 6.0353301,6.03533 0 0 0 0,-8.536373 L 26.66705,2.7671475 A 6.0353301,6.03533 0 0 0 22.398863,1.0000001 H 4.6211966 A 3.6211981,3.621198 0 0 0 1.0000001,4.6211966 V 22.401279 a 6.0353301,6.03533 0 0 0 1.7671474,4.268186 L 21.331817,45.234144 Z M 10.65653,15.513756 c 0,2.679692 2.008552,4.799295 4.799295,4.799295 2.793149,0 4.857226,-2.119603 4.857226,-4.799295 0,-2.735207 -2.064077,-4.857226 -4.857226,-4.857226 -2.790743,0 -4.799295,2.124434 -4.799295,4.857226 z"
     fill="#000000"
     id="path1"
     style="fill:#ff5555;stroke-width:2.41413" />
  <path
     d="m 39.453369,20.356777 -6.282596,-6.336048 c -0.369499,-0.371825 -0.944768,-0.349954 -1.334179,0 -0.280997,0.249968 -0.199133,0.709283 -0.199133,1.23109 v 16.491602 c -2.093091,-1.565423 -5.550234,-1.568547 -8.610663,0.218719 -3.805179,2.215337 -5.553995,6.344487 -3.907179,9.222862 1.648365,2.87775 6.068199,3.414867 9.873377,1.199842 2.955775,-1.721648 4.662108,-4.5944 4.509221,-7.141255 h 0.02212 v -18.11139 l 4.60436,4.575029 c 0.369499,0.371826 0.964681,0.371826 1.334179,0 0.369501,-0.371828 0.369501,-0.974873 0,-1.3467"
     id="music-note"
     sketch:type="MSShapeGroup"
     style="fill:#fff591;fill-opacity:1;stroke-width:0.947755" />
</svg>
